{
  "title" : "",
  "description" : "",
  "author" : "",
  "width" : 1280.0,
  "height" : 720.0,
  "version" : "0.5",
  "editRate" : 30,
  "authoringClientName" :  {
    "name" : "Camtasia",
    "platform" : "Mac",
    "version" : "3.1.2"
  },
  "timeline" : {
    "id" : 1,
    "sceneTrack" : {
      "scenes" : [
        {
          "duration" : 19.4333333333333,
          "title" : "",
          "type" : "",
          "csml" : {
            "tracks" : [
              {
                "trackIndex" : 0,
                "medias" : [
                  {
                    "id" : 2,
                    "_type" : "Callout",
                    "def" : {
                      "kind" : "remix",
                      "shape" : "text",
                      "style" : "basic",
                      "height" : 250.0,
                      "width" : 1180.37456697455,
                      "word-wrap" : 1.0,
                      "horizontal-alignment" : "left",
                      "text" : "I am not available next week Mon - Wed\n",
                      "vertical-alignment" : "center",
                      "font" : {
                        "color-blue" : 1.0,
                        "color-green" : 1.0,
                        "color-red" : 1.0,
                        "size" : 96.0,
                        "tracking" : 0.0,
                        "name" : "Montserrat",
                        "weight" : "Regular"
                      },
                      "textAttributes" : {
                        "type" : "textAttributeList",
                        "keyframes" : [
                          {
                            "time" : 0,
                            "value" : [{"name":"fontName","rangeEnd":39,"rangeStart":0,"value":"Arial","valueType":"string"},{"name":"fontItalic","rangeEnd":39,"rangeStart":0,"value":0,"valueType":"int"},{"name":"fontWeight","rangeEnd":39,"rangeStart":0,"value":400,"valueType":"int"},{"name":"underline","rangeEnd":39,"rangeStart":0,"value":0,"valueType":"int"},{"name":"strikethrough","rangeEnd":39,"rangeStart":0,"value":0,"valueType":"int"},{"name":"fontSize","rangeEnd":39,"rangeStart":0,"value":64,"valueType":"double"},{"name":"fgColor","rangeEnd":39,"rangeStart":0,"value":"(212,212,212,255)","valueType":"color"}],
                            "duration" : 0
                          }
                        ]
                      }
                    },
                    "attributes" : {
                      "autoRotateText" : true
                    },
                    "parameters" : {
                      "translation0" : 0.26696016164351,
                      "translation1" : -38.2726616628176
                    },
                    "effects" : [
                        {
                          "effectName" : "DropShadow",
                          "category" : "categoryVisualEffects",
                          "parameters" : {
                            "angle" : -0.785398163397448,
                            "blur" : 10.0,
                            "color-alpha" : 1.0,
                            "color-blue" : 0.0,
                            "color-green" : 0.0,
                            "color-red" : 0.0,
                            "enabled" : 1,
                            "offset" : 10.0,
                            "opacity" : 0.4
                          }
                        }
                    ],
                    "start" : 0,
                    "duration" : 583,
                    "mediaStart" : 0,
                    "mediaDuration" : 583,
                    "scalar" : 1,
                    "metadata" : {
                      "clipSpeedAttribute" : false,
                      "default-scale" : "1",
                      "default-text" : "{\\rtf1\\ansi\\ansicpg1252\\cocoartf1561\\cocoasubrtf400\n{\\fonttbl\\f0\\fnil\\fcharset0 Menlo-Regular;}\n{\\colortbl;\\red255\\green255\\blue255;\\red202\\green202\\blue202;}\n{\\*\\expandedcolortbl;;\\cssrgb\\c83137\\c83137\\c83137;}\n\\pard\\tx560\\tx1120\\tx1680\\tx2240\\tx2800\\tx3360\\tx3920\\tx4480\\tx5040\\tx5600\\tx6160\\tx6720\\pardirnatural\\partightenfactor0\n\n\\f0\\fs24 \\cf2 \\ulnone I am not available next week Mon - Wed\\\n}",
                      "effectApplied" : "none"
                    },
                    "animationTracks" : {

                    }
                  }
                ]
              },
              {
                "trackIndex" : 1,
                "medias" : [
                  {
                    "id" : 3,
                    "_type" : "Callout",
                    "def" : {
                      "kind" : "remix",
                      "shape" : "shape-rectangle",
                      "style" : "basic",
                      "fill-color-blue" : 0.0,
                      "fill-color-green" : 0.984313725490196,
                      "fill-color-opacity" : 0.335831224918365,
                      "fill-color-red" : 1.0,
                      "height" : 115.734703063965,
                      "stroke-color-blue" : 1.0,
                      "stroke-color-green" : 1.0,
                      "stroke-color-opacity" : 1.0,
                      "stroke-color-red" : 1.0,
                      "stroke-width" : 0.0,
                      "width" : 523.906597956773,
                      "fill-style" : "solid",
                      "horizontal-alignment" : "center",
                      "stroke-style" : "solid",
                      "vertical-alignment" : "center",
                      "textAttributes" : {
                        "type" : "textAttributeList",
                        "keyframes" : [
                          {
                            "time" : 0,
                            "value" : null,
                            "duration" : 0
                          }
                        ]
                      }
                    },
                    "attributes" : {
                      "autoRotateText" : true
                    },
                    "parameters" : {
                      "translation0" : -347.567046766751,
                      "translation1" : -3.87413394919174
                    },
                    "effects" : [
                        {
                          "effectName" : "DropShadow",
                          "category" : "categoryVisualEffects",
                          "parameters" : {
                            "angle" : -0.785398163397448,
                            "blur" : 10.0,
                            "color-alpha" : 1.0,
                            "color-blue" : 0.0,
                            "color-green" : 0.0,
                            "color-red" : 0.0,
                            "enabled" : 1,
                            "offset" : 10.0,
                            "opacity" : 0.4
                          }
                        }
                    ],
                    "start" : 12,
                    "duration" : 16,
                    "mediaStart" : 0,
                    "mediaDuration" : 16,
                    "scalar" : 1,
                    "metadata" : {
                      "clipSpeedAttribute" : false,
                      "default-callout-fill-color" : "(255,255,255,255)",
                      "default-callout-fill-color-opacity" : "1",
                      "default-scale" : "1",
                      "effectApplied" : "none"
                    },
                    "animationTracks" : {

                    }
                  },
                  {
                    "id" : 4,
                    "_type" : "Callout",
                    "def" : {
                      "kind" : "remix",
                      "shape" : "shape-rectangle",
                      "style" : "basic",
                      "fill-color-blue" : 0.0,
                      "fill-color-green" : 0.984313725490196,
                      "fill-color-opacity" : 0.335831224918365,
                      "fill-color-red" : 1.0,
                      "height" : 115.734703063965,
                      "stroke-color-blue" : 1.0,
                      "stroke-color-green" : 1.0,
                      "stroke-color-opacity" : 1.0,
                      "stroke-color-red" : 1.0,
                      "stroke-width" : 0.0,
                      "width" : 258.895068866842,
                      "fill-style" : "solid",
                      "horizontal-alignment" : "center",
                      "stroke-style" : "solid",
                      "vertical-alignment" : "center",
                      "textAttributes" : {
                        "type" : "textAttributeList",
                        "keyframes" : [
                          {
                            "time" : 0,
                            "value" : null,
                            "duration" : 0
                          }
                        ]
                      }
                    },
                    "attributes" : {
                      "autoRotateText" : true
                    },
                    "parameters" : {
                      "translation0" : -480.072820438798,
                      "translation1" : -3.87413394919174
                    },
                    "effects" : [
                        {
                          "effectName" : "DropShadow",
                          "category" : "categoryVisualEffects",
                          "parameters" : {
                            "angle" : -0.785398163397448,
                            "blur" : 10.0,
                            "color-alpha" : 1.0,
                            "color-blue" : 0.0,
                            "color-green" : 0.0,
                            "color-red" : 0.0,
                            "enabled" : 1,
                            "offset" : 10.0,
                            "opacity" : 0.4
                          }
                        }
                    ],
                    "start" : 28,
                    "duration" : 16,
                    "mediaStart" : 0,
                    "mediaDuration" : 16,
                    "scalar" : 1,
                    "metadata" : {
                      "clipSpeedAttribute" : false,
                      "default-callout-fill-color" : "(255,255,255,255)",
                      "default-callout-fill-color-opacity" : "1",
                      "default-scale" : "1",
                      "effectApplied" : "none"
                    },
                    "animationTracks" : {

                    }
                  },
                  {
                    "id" : 5,
                    "_type" : "Callout",
                    "def" : {
                      "kind" : "remix",
                      "shape" : "shape-rectangle",
                      "style" : "basic",
                      "fill-color-blue" : 0.0,
                      "fill-color-green" : 0.984313725490196,
                      "fill-color-opacity" : 0.335831224918365,
                      "fill-color-red" : 1.0,
                      "height" : 115.734703063965,
                      "stroke-color-blue" : 1.0,
                      "stroke-color-green" : 1.0,
                      "stroke-color-opacity" : 1.0,
                      "stroke-color-red" : 1.0,
                      "stroke-width" : 0.0,
                      "width" : 151.273111744242,
                      "fill-style" : "solid",
                      "horizontal-alignment" : "center",
                      "stroke-style" : "solid",
                      "vertical-alignment" : "center",
                      "textAttributes" : {
                        "type" : "textAttributeList",
                        "keyframes" : [
                          {
                            "time" : 0,
                            "value" : null,
                            "duration" : 0
                          }
                        ]
                      }
                    },
                    "attributes" : {
                      "autoRotateText" : true
                    },
                    "parameters" : {
                      "translation0" : -533.883804849881,
                      "translation1" : -3.87413394919174
                    },
                    "effects" : [
                        {
                          "effectName" : "DropShadow",
                          "category" : "categoryVisualEffects",
                          "parameters" : {
                            "angle" : -0.785398163397448,
                            "blur" : 10.0,
                            "color-alpha" : 1.0,
                            "color-blue" : 0.0,
                            "color-green" : 0.0,
                            "color-red" : 0.0,
                            "enabled" : 1,
                            "offset" : 10.0,
                            "opacity" : 0.4
                          }
                        }
                    ],
                    "start" : 44,
                    "duration" : 16,
                    "mediaStart" : 0,
                    "mediaDuration" : 16,
                    "scalar" : 1,
                    "metadata" : {
                      "clipSpeedAttribute" : false,
                      "default-callout-fill-color" : "(255,255,255,255)",
                      "default-callout-fill-color-opacity" : "1",
                      "default-scale" : "1",
                      "effectApplied" : "none"
                    },
                    "animationTracks" : {

                    }
                  },
                  {
                    "id" : 6,
                    "_type" : "Callout",
                    "def" : {
                      "kind" : "remix",
                      "shape" : "shape-rectangle",
                      "style" : "basic",
                      "fill-color-blue" : 0.0,
                      "fill-color-green" : 0.984313725490196,
                      "fill-color-opacity" : 0.335831224918365,
                      "fill-color-red" : 1.0,
                      "height" : 115.734703063965,
                      "stroke-color-blue" : 1.0,
                      "stroke-color-green" : 1.0,
                      "stroke-color-opacity" : 1.0,
                      "stroke-color-red" : 1.0,
                      "stroke-width" : 0.0,
                      "width" : 47.8014560822518,
                      "fill-style" : "solid",
                      "horizontal-alignment" : "center",
                      "stroke-style" : "solid",
                      "vertical-alignment" : "center",
                      "textAttributes" : {
                        "type" : "textAttributeList",
                        "keyframes" : [
                          {
                            "time" : 0,
                            "value" : null,
                            "duration" : 0
                          }
                        ]
                      }
                    },
                    "attributes" : {
                      "autoRotateText" : true
                    },
                    "parameters" : {
                      "translation0" : -585.619635851395,
                      "translation1" : -3.87413394919174
                    },
                    "effects" : [
                        {
                          "effectName" : "DropShadow",
                          "category" : "categoryVisualEffects",
                          "parameters" : {
                            "angle" : -0.785398163397448,
                            "blur" : 10.0,
                            "color-alpha" : 1.0,
                            "color-blue" : 0.0,
                            "color-green" : 0.0,
                            "color-red" : 0.0,
                            "enabled" : 1,
                            "offset" : 10.0,
                            "opacity" : 0.4
                          }
                        }
                    ],
                    "start" : 60,
                    "duration" : 16,
                    "mediaStart" : 0,
                    "mediaDuration" : 16,
                    "scalar" : 1,
                    "metadata" : {
                      "clipSpeedAttribute" : false,
                      "default-callout-fill-color" : "(255,255,255,255)",
                      "default-callout-fill-color-opacity" : "1",
                      "default-scale" : "1",
                      "effectApplied" : "none"
                    },
                    "animationTracks" : {

                    }
                  },
                  {
                    "id" : 7,
                    "_type" : "Callout",
                    "def" : {
                      "kind" : "remix",
                      "shape" : "shape-rectangle",
                      "style" : "basic",
                      "fill-color-blue" : 0.0,
                      "fill-color-green" : 0.984313725490196,
                      "fill-color-opacity" : 0.335831224918365,
                      "fill-color-red" : 1.0,
                      "height" : 115.734703063965,
                      "stroke-color-blue" : 1.0,
                      "stroke-color-green" : 1.0,
                      "stroke-color-opacity" : 1.0,
                      "stroke-color-red" : 1.0,
                      "stroke-width" : 0.0,
                      "width" : 627.774274583743,
                      "fill-style" : "solid",
                      "horizontal-alignment" : "center",
                      "stroke-style" : "solid",
                      "vertical-alignment" : "center",
                      "textAttributes" : {
                        "type" : "textAttributeList",
                        "keyframes" : [
                          {
                            "time" : 0,
                            "value" : null,
                            "duration" : 0
                          }
                        ]
                      }
                    },
                    "attributes" : {
                      "autoRotateText" : true
                    },
                    "parameters" : {
                      "translation0" : -247.855802540426,
                      "translation1" : 0.125866050808256
                    },
                    "effects" : [
                        {
                          "effectName" : "DropShadow",
                          "category" : "categoryVisualEffects",
                          "parameters" : {
                            "angle" : -0.785398163397448,
                            "blur" : 10.0,
                            "color-alpha" : 1.0,
                            "color-blue" : 0.0,
                            "color-green" : 0.0,
                            "color-red" : 0.0,
                            "enabled" : 1,
                            "offset" : 10.0,
                            "opacity" : 0.4
                          }
                        }
                    ],
                    "start" : 76,
                    "duration" : 16,
                    "mediaStart" : 0,
                    "mediaDuration" : 16,
                    "scalar" : 1,
                    "metadata" : {
                      "clipSpeedAttribute" : false,
                      "default-callout-fill-color" : "(255,255,255,255)",
                      "default-callout-fill-color-opacity" : "1",
                      "default-scale" : "1",
                      "effectApplied" : "none"
                    },
                    "animationTracks" : {

                    }
                  },
                  {
                    "id" : 8,
                    "_type" : "Callout",
                    "def" : {
                      "kind" : "remix",
                      "shape" : "shape-rectangle",
                      "style" : "basic",
                      "fill-color-blue" : 0.0,
                      "fill-color-green" : 0.984313725490196,
                      "fill-color-opacity" : 0.335831224918365,
                      "fill-color-red" : 1.0,
                      "height" : 115.734703063965,
                      "stroke-color-blue" : 1.0,
                      "stroke-color-green" : 1.0,
                      "stroke-color-opacity" : 1.0,
                      "stroke-color-red" : 1.0,
                      "stroke-width" : 0.0,
                      "width" : 481.81008875894,
                      "fill-style" : "solid",
                      "horizontal-alignment" : "center",
                      "stroke-style" : "solid",
                      "vertical-alignment" : "center",
                      "textAttributes" : {
                        "type" : "textAttributeList",
                        "keyframes" : [
                          {
                            "time" : 0,
                            "value" : null,
                            "duration" : 0
                          }
                        ]
                      }
                    },
                    "attributes" : {
                      "autoRotateText" : true
                    },
                    "parameters" : {
                      "translation0" : -320.837904157049,
                      "translation1" : 0.125866050808256
                    },
                    "effects" : [
                        {
                          "effectName" : "DropShadow",
                          "category" : "categoryVisualEffects",
                          "parameters" : {
                            "angle" : -0.785398163397448,
                            "blur" : 10.0,
                            "color-alpha" : 1.0,
                            "color-blue" : 0.0,
                            "color-green" : 0.0,
                            "color-red" : 0.0,
                            "enabled" : 1,
                            "offset" : 10.0,
                            "opacity" : 0.4
                          }
                        }
                    ],
                    "start" : 92,
                    "duration" : 16,
                    "mediaStart" : 0,
                    "mediaDuration" : 16,
                    "scalar" : 1,
                    "metadata" : {
                      "clipSpeedAttribute" : false,
                      "default-callout-fill-color" : "(255,255,255,255)",
                      "default-callout-fill-color-opacity" : "1",
                      "default-scale" : "1",
                      "effectApplied" : "none"
                    },
                    "animationTracks" : {

                    }
                  },
                  {
                    "id" : 9,
                    "_type" : "Callout",
                    "def" : {
                      "kind" : "remix",
                      "shape" : "shape-rectangle",
                      "style" : "basic",
                      "fill-color-blue" : 0.0,
                      "fill-color-green" : 0.984313725490196,
                      "fill-color-opacity" : 0.335831224918365,
                      "fill-color-red" : 1.0,
                      "height" : 115.734703063965,
                      "stroke-color-blue" : 1.0,
                      "stroke-color-green" : 1.0,
                      "stroke-color-opacity" : 1.0,
                      "stroke-color-red" : 1.0,
                      "stroke-width" : 0.0,
                      "width" : 212.407664169081,
                      "fill-style" : "solid",
                      "horizontal-alignment" : "center",
                      "stroke-style" : "solid",
                      "vertical-alignment" : "center",
                      "textAttributes" : {
                        "type" : "textAttributeList",
                        "keyframes" : [
                          {
                            "time" : 0,
                            "value" : null,
                            "duration" : 0
                          }
                        ]
                      }
                    },
                    "attributes" : {
                      "autoRotateText" : true
                    },
                    "parameters" : {
                      "translation0" : -455.539116628173,
                      "translation1" : 0.125866050808256
                    },
                    "effects" : [
                        {
                          "effectName" : "DropShadow",
                          "category" : "categoryVisualEffects",
                          "parameters" : {
                            "angle" : -0.785398163397448,
                            "blur" : 10.0,
                            "color-alpha" : 1.0,
                            "color-blue" : 0.0,
                            "color-green" : 0.0,
                            "color-red" : 0.0,
                            "enabled" : 1,
                            "offset" : 10.0,
                            "opacity" : 0.4
                          }
                        }
                    ],
                    "start" : 108,
                    "duration" : 16,
                    "mediaStart" : 0,
                    "mediaDuration" : 16,
                    "scalar" : 1,
                    "metadata" : {
                      "clipSpeedAttribute" : false,
                      "default-callout-fill-color" : "(255,255,255,255)",
                      "default-callout-fill-color-opacity" : "1",
                      "default-scale" : "1",
                      "effectApplied" : "none"
                    },
                    "animationTracks" : {

                    }
                  },
                  {
                    "id" : 10,
                    "_type" : "Callout",
                    "def" : {
                      "kind" : "remix",
                      "shape" : "shape-rectangle",
                      "style" : "basic",
                      "fill-color-blue" : 0.0,
                      "fill-color-green" : 0.984313725490196,
                      "fill-color-opacity" : 0.335831224918365,
                      "fill-color-red" : 1.0,
                      "height" : 115.734703063965,
                      "stroke-color-blue" : 1.0,
                      "stroke-color-green" : 1.0,
                      "stroke-color-opacity" : 1.0,
                      "stroke-color-red" : 1.0,
                      "stroke-width" : 0.0,
                      "width" : 103.350221030438,
                      "fill-style" : "solid",
                      "horizontal-alignment" : "center",
                      "stroke-style" : "solid",
                      "vertical-alignment" : "center",
                      "textAttributes" : {
                        "type" : "textAttributeList",
                        "keyframes" : [
                          {
                            "time" : 0,
                            "value" : null,
                            "duration" : 0
                          }
                        ]
                      }
                    },
                    "attributes" : {
                      "autoRotateText" : true
                    },
                    "parameters" : {
                      "translation0" : -510.067840646646,
                      "translation1" : 0.125866050808256
                    },
                    "effects" : [
                        {
                          "effectName" : "DropShadow",
                          "category" : "categoryVisualEffects",
                          "parameters" : {
                            "angle" : -0.785398163397448,
                            "blur" : 10.0,
                            "color-alpha" : 1.0,
                            "color-blue" : 0.0,
                            "color-green" : 0.0,
                            "color-red" : 0.0,
                            "enabled" : 1,
                            "offset" : 10.0,
                            "opacity" : 0.4
                          }
                        }
                    ],
                    "start" : 124,
                    "duration" : 16,
                    "mediaStart" : 0,
                    "mediaDuration" : 16,
                    "scalar" : 1,
                    "metadata" : {
                      "clipSpeedAttribute" : false,
                      "default-callout-fill-color" : "(255,255,255,255)",
                      "default-callout-fill-color-opacity" : "1",
                      "default-scale" : "1",
                      "effectApplied" : "none"
                    },
                    "animationTracks" : {

                    }
                  },
                  {
                    "id" : 11,
                    "_type" : "Callout",
                    "def" : {
                      "kind" : "remix",
                      "shape" : "shape-rectangle",
                      "style" : "basic",
                      "fill-color-blue" : 0.0,
                      "fill-color-green" : 0.984313725490196,
                      "fill-color-opacity" : 0.335831224918365,
                      "fill-color-red" : 1.0,
                      "height" : 115.734703063965,
                      "stroke-color-blue" : 1.0,
                      "stroke-color-green" : 1.0,
                      "stroke-color-opacity" : 1.0,
                      "stroke-color-red" : 1.0,
                      "stroke-width" : 0.0,
                      "width" : 691.188700123107,
                      "fill-style" : "solid",
                      "horizontal-alignment" : "center",
                      "stroke-style" : "solid",
                      "vertical-alignment" : "center",
                      "textAttributes" : {
                        "type" : "textAttributeList",
                        "keyframes" : [
                          {
                            "time" : 0,
                            "value" : null,
                            "duration" : 0
                          }
                        ]
                      }
                    },
                    "attributes" : {
                      "autoRotateText" : true
                    },
                    "parameters" : {
                      "translation0" : -111.546550230958,
                      "translation1" : 0.125866050808256
                    },
                    "effects" : [
                        {
                          "effectName" : "DropShadow",
                          "category" : "categoryVisualEffects",
                          "parameters" : {
                            "angle" : -0.785398163397448,
                            "blur" : 10.0,
                            "color-alpha" : 1.0,
                            "color-blue" : 0.0,
                            "color-green" : 0.0,
                            "color-red" : 0.0,
                            "enabled" : 1,
                            "offset" : 10.0,
                            "opacity" : 0.4
                          }
                        }
                    ],
                    "start" : 140,
                    "duration" : 16,
                    "mediaStart" : 0,
                    "mediaDuration" : 16,
                    "scalar" : 1,
                    "metadata" : {
                      "clipSpeedAttribute" : false,
                      "default-callout-fill-color" : "(255,255,255,255)",
                      "default-callout-fill-color-opacity" : "1",
                      "default-scale" : "1",
                      "effectApplied" : "none"
                    },
                    "animationTracks" : {

                    }
                  },
                  {
                    "id" : 12,
                    "_type" : "Callout",
                    "def" : {
                      "kind" : "remix",
                      "shape" : "shape-rectangle",
                      "style" : "basic",
                      "fill-color-blue" : 0.0,
                      "fill-color-green" : 0.984313725490196,
                      "fill-color-opacity" : 0.335831224918365,
                      "fill-color-red" : 1.0,
                      "height" : 115.734703063965,
                      "stroke-color-blue" : 1.0,
                      "stroke-color-green" : 1.0,
                      "stroke-color-opacity" : 1.0,
                      "stroke-color-red" : 1.0,
                      "stroke-width" : 0.0,
                      "width" : 519.97047589944,
                      "fill-style" : "solid",
                      "horizontal-alignment" : "center",
                      "stroke-style" : "solid",
                      "vertical-alignment" : "center",
                      "textAttributes" : {
                        "type" : "textAttributeList",
                        "keyframes" : [
                          {
                            "time" : 0,
                            "value" : null,
                            "duration" : 0
                          }
                        ]
                      }
                    },
                    "attributes" : {
                      "autoRotateText" : true
                    },
                    "parameters" : {
                      "translation0" : -197.155672632801,
                      "translation1" : 0.125866050808256
                    },
                    "effects" : [
                        {
                          "effectName" : "DropShadow",
                          "category" : "categoryVisualEffects",
                          "parameters" : {
                            "angle" : -0.785398163397448,
                            "blur" : 10.0,
                            "color-alpha" : 1.0,
                            "color-blue" : 0.0,
                            "color-green" : 0.0,
                            "color-red" : 0.0,
                            "enabled" : 1,
                            "offset" : 10.0,
                            "opacity" : 0.4
                          }
                        }
                    ],
                    "start" : 156,
                    "duration" : 16,
                    "mediaStart" : 0,
                    "mediaDuration" : 16,
                    "scalar" : 1,
                    "metadata" : {
                      "clipSpeedAttribute" : false,
                      "default-callout-fill-color" : "(255,255,255,255)",
                      "default-callout-fill-color-opacity" : "1",
                      "default-scale" : "1",
                      "effectApplied" : "none"
                    },
                    "animationTracks" : {

                    }
                  },
                  {
                    "id" : 13,
                    "_type" : "Callout",
                    "def" : {
                      "kind" : "remix",
                      "shape" : "shape-rectangle",
                      "style" : "basic",
                      "fill-color-blue" : 0.0,
                      "fill-color-green" : 0.984313725490196,
                      "fill-color-opacity" : 0.335831224918365,
                      "fill-color-red" : 1.0,
                      "height" : 115.734703063965,
                      "stroke-color-blue" : 1.0,
                      "stroke-color-green" : 1.0,
                      "stroke-color-opacity" : 1.0,
                      "stroke-color-red" : 1.0,
                      "stroke-width" : 0.0,
                      "width" : 378.669939353898,
                      "fill-style" : "solid",
                      "horizontal-alignment" : "center",
                      "stroke-style" : "solid",
                      "vertical-alignment" : "center",
                      "textAttributes" : {
                        "type" : "textAttributeList",
                        "keyframes" : [
                          {
                            "time" : 0,
                            "value" : null,
                            "duration" : 0
                          }
                        ]
                      }
                    },
                    "attributes" : {
                      "autoRotateText" : true
                    },
                    "parameters" : {
                      "translation0" : -267.805932448039,
                      "translation1" : 0.125866050808256
                    },
                    "effects" : [
                        {
                          "effectName" : "DropShadow",
                          "category" : "categoryVisualEffects",
                          "parameters" : {
                            "angle" : -0.785398163397448,
                            "blur" : 10.0,
                            "color-alpha" : 1.0,
                            "color-blue" : 0.0,
                            "color-green" : 0.0,
                            "color-red" : 0.0,
                            "enabled" : 1,
                            "offset" : 10.0,
                            "opacity" : 0.4
                          }
                        }
                    ],
                    "start" : 172,
                    "duration" : 16,
                    "mediaStart" : 0,
                    "mediaDuration" : 16,
                    "scalar" : 1,
                    "metadata" : {
                      "clipSpeedAttribute" : false,
                      "default-callout-fill-color" : "(255,255,255,255)",
                      "default-callout-fill-color-opacity" : "1",
                      "default-scale" : "1",
                      "effectApplied" : "none"
                    },
                    "animationTracks" : {

                    }
                  },
                  {
                    "id" : 14,
                    "_type" : "Callout",
                    "def" : {
                      "kind" : "remix",
                      "shape" : "shape-rectangle",
                      "style" : "basic",
                      "fill-color-blue" : 0.0,
                      "fill-color-green" : 0.984313725490196,
                      "fill-color-opacity" : 0.335831224918365,
                      "fill-color-red" : 1.0,
                      "height" : 115.734703063965,
                      "stroke-color-blue" : 1.0,
                      "stroke-color-green" : 1.0,
                      "stroke-color-opacity" : 1.0,
                      "stroke-color-red" : 1.0,
                      "stroke-width" : 0.0,
                      "width" : 110.839409667421,
                      "fill-style" : "solid",
                      "horizontal-alignment" : "center",
                      "stroke-style" : "solid",
                      "vertical-alignment" : "center",
                      "textAttributes" : {
                        "type" : "textAttributeList",
                        "keyframes" : [
                          {
                            "time" : 0,
                            "value" : null,
                            "duration" : 0
                          }
                        ]
                      }
                    },
                    "attributes" : {
                      "autoRotateText" : true
                    },
                    "parameters" : {
                      "translation0" : -401.721203810618,
                      "translation1" : 0.125866050808256
                    },
                    "effects" : [
                        {
                          "effectName" : "DropShadow",
                          "category" : "categoryVisualEffects",
                          "parameters" : {
                            "angle" : -0.785398163397448,
                            "blur" : 10.0,
                            "color-alpha" : 1.0,
                            "color-blue" : 0.0,
                            "color-green" : 0.0,
                            "color-red" : 0.0,
                            "enabled" : 1,
                            "offset" : 10.0,
                            "opacity" : 0.4
                          }
                        }
                    ],
                    "start" : 188,
                    "duration" : 16,
                    "mediaStart" : 0,
                    "mediaDuration" : 16,
                    "scalar" : 1,
                    "metadata" : {
                      "clipSpeedAttribute" : false,
                      "default-callout-fill-color" : "(255,255,255,255)",
                      "default-callout-fill-color-opacity" : "1",
                      "default-scale" : "1",
                      "effectApplied" : "none"
                    },
                    "animationTracks" : {

                    }
                  },
                  {
                    "id" : 15,
                    "_type" : "Callout",
                    "def" : {
                      "kind" : "remix",
                      "shape" : "shape-rectangle",
                      "style" : "basic",
                      "fill-color-blue" : 0.0,
                      "fill-color-green" : 0.984313725490196,
                      "fill-color-opacity" : 0.335831224918365,
                      "fill-color-red" : 1.0,
                      "height" : 115.734703063965,
                      "stroke-color-blue" : 1.0,
                      "stroke-color-green" : 1.0,
                      "stroke-color-opacity" : 1.0,
                      "stroke-color-red" : 1.0,
                      "stroke-width" : 0.0,
                      "width" : 720.560829197802,
                      "fill-style" : "solid",
                      "horizontal-alignment" : "center",
                      "stroke-style" : "solid",
                      "vertical-alignment" : "center",
                      "textAttributes" : {
                        "type" : "textAttributeList",
                        "keyframes" : [
                          {
                            "time" : 0,
                            "value" : null,
                            "duration" : 0
                          }
                        ]
                      }
                    },
                    "attributes" : {
                      "autoRotateText" : true
                    },
                    "parameters" : {
                      "translation0" : 13.1395063510271,
                      "translation1" : 0.125866050808256
                    },
                    "effects" : [
                        {
                          "effectName" : "DropShadow",
                          "category" : "categoryVisualEffects",
                          "parameters" : {
                            "angle" : -0.785398163397448,
                            "blur" : 10.0,
                            "color-alpha" : 1.0,
                            "color-blue" : 0.0,
                            "color-green" : 0.0,
                            "color-red" : 0.0,
                            "enabled" : 1,
                            "offset" : 10.0,
                            "opacity" : 0.4
                          }
                        }
                    ],
                    "start" : 204,
                    "duration" : 16,
                    "mediaStart" : 0,
                    "mediaDuration" : 16,
                    "scalar" : 1,
                    "metadata" : {
                      "clipSpeedAttribute" : false,
                      "default-callout-fill-color" : "(255,255,255,255)",
                      "default-callout-fill-color-opacity" : "1",
                      "default-scale" : "1",
                      "effectApplied" : "none"
                    },
                    "animationTracks" : {

                    }
                  },
                  {
                    "id" : 16,
                    "_type" : "Callout",
                    "def" : {
                      "kind" : "remix",
                      "shape" : "shape-rectangle",
                      "style" : "basic",
                      "fill-color-blue" : 0.0,
                      "fill-color-green" : 0.984313725490196,
                      "fill-color-opacity" : 0.335831224918365,
                      "fill-color-red" : 1.0,
                      "height" : 115.734703063965,
                      "stroke-color-blue" : 1.0,
                      "stroke-color-green" : 1.0,
                      "stroke-color-opacity" : 1.0,
                      "stroke-color-red" : 1.0,
                      "stroke-width" : 0.0,
                      "width" : 575.044830110836,
                      "fill-style" : "solid",
                      "horizontal-alignment" : "center",
                      "stroke-style" : "solid",
                      "vertical-alignment" : "center",
                      "textAttributes" : {
                        "type" : "textAttributeList",
                        "keyframes" : [
                          {
                            "time" : 0,
                            "value" : null,
                            "duration" : 0
                          }
                        ]
                      }
                    },
                    "attributes" : {
                      "autoRotateText" : true
                    },
                    "parameters" : {
                      "translation0" : -59.6185046189455,
                      "translation1" : 0.125866050808256
                    },
                    "effects" : [
                        {
                          "effectName" : "DropShadow",
                          "category" : "categoryVisualEffects",
                          "parameters" : {
                            "angle" : -0.785398163397448,
                            "blur" : 10.0,
                            "color-alpha" : 1.0,
                            "color-blue" : 0.0,
                            "color-green" : 0.0,
                            "color-red" : 0.0,
                            "enabled" : 1,
                            "offset" : 10.0,
                            "opacity" : 0.4
                          }
                        }
                    ],
                    "start" : 220,
                    "duration" : 16,
                    "mediaStart" : 0,
                    "mediaDuration" : 16,
                    "scalar" : 1,
                    "metadata" : {
                      "clipSpeedAttribute" : false,
                      "default-callout-fill-color" : "(255,255,255,255)",
                      "default-callout-fill-color-opacity" : "1",
                      "default-scale" : "1",
                      "effectApplied" : "none"
                    },
                    "animationTracks" : {

                    }
                  },
                  {
                    "id" : 17,
                    "_type" : "Callout",
                    "def" : {
                      "kind" : "remix",
                      "shape" : "shape-rectangle",
                      "style" : "basic",
                      "fill-color-blue" : 0.0,
                      "fill-color-green" : 0.984313725490196,
                      "fill-color-opacity" : 0.335831224918365,
                      "fill-color-red" : 1.0,
                      "height" : 115.734703063965,
                      "stroke-color-blue" : 1.0,
                      "stroke-color-green" : 1.0,
                      "stroke-color-opacity" : 1.0,
                      "stroke-color-red" : 1.0,
                      "stroke-width" : 0.0,
                      "width" : 409.187564664273,
                      "fill-style" : "solid",
                      "horizontal-alignment" : "center",
                      "stroke-style" : "solid",
                      "vertical-alignment" : "center",
                      "textAttributes" : {
                        "type" : "textAttributeList",
                        "keyframes" : [
                          {
                            "time" : 0,
                            "value" : null,
                            "duration" : 0
                          }
                        ]
                      }
                    },
                    "attributes" : {
                      "autoRotateText" : true
                    },
                    "parameters" : {
                      "translation0" : -142.547124867365,
                      "translation1" : 0.125866050808256
                    },
                    "effects" : [
                        {
                          "effectName" : "DropShadow",
                          "category" : "categoryVisualEffects",
                          "parameters" : {
                            "angle" : -0.785398163397448,
                            "blur" : 10.0,
                            "color-alpha" : 1.0,
                            "color-blue" : 0.0,
                            "color-green" : 0.0,
                            "color-red" : 0.0,
                            "enabled" : 1,
                            "offset" : 10.0,
                            "opacity" : 0.4
                          }
                        }
                    ],
                    "start" : 236,
                    "duration" : 16,
                    "mediaStart" : 0,
                    "mediaDuration" : 16,
                    "scalar" : 1,
                    "metadata" : {
                      "clipSpeedAttribute" : false,
                      "default-callout-fill-color" : "(255,255,255,255)",
                      "default-callout-fill-color-opacity" : "1",
                      "default-scale" : "1",
                      "effectApplied" : "none"
                    },
                    "animationTracks" : {

                    }
                  },
                  {
                    "id" : 18,
                    "_type" : "Callout",
                    "def" : {
                      "kind" : "remix",
                      "shape" : "shape-rectangle",
                      "style" : "basic",
                      "fill-color-blue" : 0.0,
                      "fill-color-green" : 0.984313725490196,
                      "fill-color-opacity" : 0.335831224918365,
                      "fill-color-red" : 1.0,
                      "height" : 115.734703063965,
                      "stroke-color-blue" : 1.0,
                      "stroke-color-green" : 1.0,
                      "stroke-color-opacity" : 1.0,
                      "stroke-color-red" : 1.0,
                      "stroke-width" : 0.0,
                      "width" : 268.144545345887,
                      "fill-style" : "solid",
                      "horizontal-alignment" : "center",
                      "stroke-style" : "solid",
                      "vertical-alignment" : "center",
                      "textAttributes" : {
                        "type" : "textAttributeList",
                        "keyframes" : [
                          {
                            "time" : 0,
                            "value" : null,
                            "duration" : 0
                          }
                        ]
                      }
                    },
                    "attributes" : {
                      "autoRotateText" : true
                    },
                    "parameters" : {
                      "translation0" : -213.068634526558,
                      "translation1" : 0.125866050808256
                    },
                    "effects" : [
                        {
                          "effectName" : "DropShadow",
                          "category" : "categoryVisualEffects",
                          "parameters" : {
                            "angle" : -0.785398163397448,
                            "blur" : 10.0,
                            "color-alpha" : 1.0,
                            "color-blue" : 0.0,
                            "color-green" : 0.0,
                            "color-red" : 0.0,
                            "enabled" : 1,
                            "offset" : 10.0,
                            "opacity" : 0.4
                          }
                        }
                    ],
                    "start" : 252,
                    "duration" : 16,
                    "mediaStart" : 0,
                    "mediaDuration" : 16,
                    "scalar" : 1,
                    "metadata" : {
                      "clipSpeedAttribute" : false,
                      "default-callout-fill-color" : "(255,255,255,255)",
                      "default-callout-fill-color-opacity" : "1",
                      "default-scale" : "1",
                      "effectApplied" : "none"
                    },
                    "animationTracks" : {

                    }
                  },
                  {
                    "id" : 19,
                    "_type" : "Callout",
                    "def" : {
                      "kind" : "remix",
                      "shape" : "shape-rectangle",
                      "style" : "basic",
                      "fill-color-blue" : 0.0,
                      "fill-color-green" : 0.984313725490196,
                      "fill-color-opacity" : 0.335831224918365,
                      "fill-color-red" : 1.0,
                      "height" : 115.734703063965,
                      "stroke-color-blue" : 1.0,
                      "stroke-color-green" : 1.0,
                      "stroke-color-opacity" : 1.0,
                      "stroke-color-red" : 1.0,
                      "stroke-width" : 0.0,
                      "width" : 494.320196984272,
                      "fill-style" : "solid",
                      "horizontal-alignment" : "center",
                      "stroke-style" : "solid",
                      "vertical-alignment" : "center",
                      "textAttributes" : {
                        "type" : "textAttributeList",
                        "keyframes" : [
                          {
                            "time" : 0,
                            "value" : null,
                            "duration" : 0
                          }
                        ]
                      }
                    },
                    "attributes" : {
                      "autoRotateText" : true
                    },
                    "parameters" : {
                      "translation0" : 167.89751732101,
                      "translation1" : 0.125866050808256
                    },
                    "effects" : [
                        {
                          "effectName" : "DropShadow",
                          "category" : "categoryVisualEffects",
                          "parameters" : {
                            "angle" : -0.785398163397448,
                            "blur" : 10.0,
                            "color-alpha" : 1.0,
                            "color-blue" : 0.0,
                            "color-green" : 0.0,
                            "color-red" : 0.0,
                            "enabled" : 1,
                            "offset" : 10.0,
                            "opacity" : 0.4
                          }
                        }
                    ],
                    "start" : 268,
                    "duration" : 16,
                    "mediaStart" : 0,
                    "mediaDuration" : 16,
                    "scalar" : 1,
                    "metadata" : {
                      "clipSpeedAttribute" : false,
                      "default-callout-fill-color" : "(255,255,255,255)",
                      "default-callout-fill-color-opacity" : "1",
                      "default-scale" : "1",
                      "effectApplied" : "none"
                    },
                    "animationTracks" : {

                    }
                  },
                  {
                    "id" : 20,
                    "_type" : "Callout",
                    "def" : {
                      "kind" : "remix",
                      "shape" : "shape-rectangle",
                      "style" : "basic",
                      "fill-color-blue" : 0.0,
                      "fill-color-green" : 0.984313725490196,
                      "fill-color-opacity" : 0.335831224918365,
                      "fill-color-red" : 1.0,
                      "height" : 115.734703063965,
                      "stroke-color-blue" : 1.0,
                      "stroke-color-green" : 1.0,
                      "stroke-color-opacity" : 1.0,
                      "stroke-color-red" : 1.0,
                      "stroke-width" : 0.0,
                      "width" : 450.573798974725,
                      "fill-style" : "solid",
                      "horizontal-alignment" : "center",
                      "stroke-style" : "solid",
                      "vertical-alignment" : "center",
                      "textAttributes" : {
                        "type" : "textAttributeList",
                        "keyframes" : [
                          {
                            "time" : 0,
                            "value" : null,
                            "duration" : 0
                          }
                        ]
                      }
                    },
                    "attributes" : {
                      "autoRotateText" : true
                    },
                    "parameters" : {
                      "translation0" : 146.024321593529,
                      "translation1" : 0.125866050808256
                    },
                    "effects" : [
                        {
                          "effectName" : "DropShadow",
                          "category" : "categoryVisualEffects",
                          "parameters" : {
                            "angle" : -0.785398163397448,
                            "blur" : 10.0,
                            "color-alpha" : 1.0,
                            "color-blue" : 0.0,
                            "color-green" : 0.0,
                            "color-red" : 0.0,
                            "enabled" : 1,
                            "offset" : 10.0,
                            "opacity" : 0.4
                          }
                        }
                    ],
                    "start" : 284,
                    "duration" : 16,
                    "mediaStart" : 0,
                    "mediaDuration" : 16,
                    "scalar" : 1,
                    "metadata" : {
                      "clipSpeedAttribute" : false,
                      "default-callout-fill-color" : "(255,255,255,255)",
                      "default-callout-fill-color-opacity" : "1",
                      "default-scale" : "1",
                      "effectApplied" : "none"
                    },
                    "animationTracks" : {

                    }
                  },
                  {
                    "id" : 21,
                    "_type" : "Callout",
                    "def" : {
                      "kind" : "remix",
                      "shape" : "shape-rectangle",
                      "style" : "basic",
                      "fill-color-blue" : 0.0,
                      "fill-color-green" : 0.984313725490196,
                      "fill-color-opacity" : 0.335831224918365,
                      "fill-color-red" : 1.0,
                      "height" : 115.734703063965,
                      "stroke-color-blue" : 1.0,
                      "stroke-color-green" : 1.0,
                      "stroke-color-opacity" : 1.0,
                      "stroke-color-red" : 1.0,
                      "stroke-width" : 0.0,
                      "width" : 308.363913661613,
                      "fill-style" : "solid",
                      "horizontal-alignment" : "center",
                      "stroke-style" : "solid",
                      "vertical-alignment" : "center",
                      "textAttributes" : {
                        "type" : "textAttributeList",
                        "keyframes" : [
                          {
                            "time" : 0,
                            "value" : null,
                            "duration" : 0
                          }
                        ]
                      }
                    },
                    "attributes" : {
                      "autoRotateText" : true
                    },
                    "parameters" : {
                      "translation0" : 74.9193851039257,
                      "translation1" : 0.125866050808256
                    },
                    "effects" : [
                        {
                          "effectName" : "DropShadow",
                          "category" : "categoryVisualEffects",
                          "parameters" : {
                            "angle" : -0.785398163397448,
                            "blur" : 10.0,
                            "color-alpha" : 1.0,
                            "color-blue" : 0.0,
                            "color-green" : 0.0,
                            "color-red" : 0.0,
                            "enabled" : 1,
                            "offset" : 10.0,
                            "opacity" : 0.4
                          }
                        }
                    ],
                    "start" : 300,
                    "duration" : 16,
                    "mediaStart" : 0,
                    "mediaDuration" : 16,
                    "scalar" : 1,
                    "metadata" : {
                      "clipSpeedAttribute" : false,
                      "default-callout-fill-color" : "(255,255,255,255)",
                      "default-callout-fill-color-opacity" : "1",
                      "default-scale" : "1",
                      "effectApplied" : "none"
                    },
                    "animationTracks" : {

                    }
                  },
                  {
                    "id" : 22,
                    "_type" : "Callout",
                    "def" : {
                      "kind" : "remix",
                      "shape" : "shape-rectangle",
                      "style" : "basic",
                      "fill-color-blue" : 0.0,
                      "fill-color-green" : 0.984313725490196,
                      "fill-color-opacity" : 0.335831224918365,
                      "fill-color-red" : 1.0,
                      "height" : 115.734703063965,
                      "stroke-color-blue" : 1.0,
                      "stroke-color-green" : 1.0,
                      "stroke-color-opacity" : 1.0,
                      "stroke-color-red" : 1.0,
                      "stroke-width" : 0.0,
                      "width" : 327.232995647755,
                      "fill-style" : "solid",
                      "horizontal-alignment" : "center",
                      "stroke-style" : "solid",
                      "vertical-alignment" : "center",
                      "textAttributes" : {
                        "type" : "textAttributeList",
                        "keyframes" : [
                          {
                            "time" : 0,
                            "value" : null,
                            "duration" : 0
                          }
                        ]
                      }
                    },
                    "attributes" : {
                      "autoRotateText" : true
                    },
                    "parameters" : {
                      "translation0" : 397.353926096997,
                      "translation1" : 0.125866050808256
                    },
                    "effects" : [
                        {
                          "effectName" : "DropShadow",
                          "category" : "categoryVisualEffects",
                          "parameters" : {
                            "angle" : -0.785398163397448,
                            "blur" : 10.0,
                            "color-alpha" : 1.0,
                            "color-blue" : 0.0,
                            "color-green" : 0.0,
                            "color-red" : 0.0,
                            "enabled" : 1,
                            "offset" : 10.0,
                            "opacity" : 0.4
                          }
                        }
                    ],
                    "start" : 332,
                    "duration" : 16,
                    "mediaStart" : 0,
                    "mediaDuration" : 16,
                    "scalar" : 1,
                    "metadata" : {
                      "clipSpeedAttribute" : false,
                      "default-callout-fill-color" : "(255,255,255,255)",
                      "default-callout-fill-color-opacity" : "1",
                      "default-scale" : "1",
                      "effectApplied" : "none"
                    },
                    "animationTracks" : {

                    }
                  },
                  {
                    "id" : 23,
                    "_type" : "Callout",
                    "def" : {
                      "kind" : "remix",
                      "shape" : "shape-rectangle",
                      "style" : "basic",
                      "fill-color-blue" : 0.0,
                      "fill-color-green" : 0.984313725490196,
                      "fill-color-opacity" : 0.335831224918365,
                      "fill-color-red" : 1.0,
                      "height" : 115.734703063965,
                      "stroke-color-blue" : 1.0,
                      "stroke-color-green" : 1.0,
                      "stroke-color-opacity" : 1.0,
                      "stroke-color-red" : 1.0,
                      "stroke-width" : 0.0,
                      "width" : 180.294491316383,
                      "fill-style" : "solid",
                      "horizontal-alignment" : "center",
                      "stroke-style" : "solid",
                      "vertical-alignment" : "center",
                      "textAttributes" : {
                        "type" : "textAttributeList",
                        "keyframes" : [
                          {
                            "time" : 0,
                            "value" : null,
                            "duration" : 0
                          }
                        ]
                      }
                    },
                    "attributes" : {
                      "autoRotateText" : true
                    },
                    "parameters" : {
                      "translation0" : 323.884670900696,
                      "translation1" : 0.125866050808256
                    },
                    "effects" : [
                        {
                          "effectName" : "DropShadow",
                          "category" : "categoryVisualEffects",
                          "parameters" : {
                            "angle" : -0.785398163397448,
                            "blur" : 10.0,
                            "color-alpha" : 1.0,
                            "color-blue" : 0.0,
                            "color-green" : 0.0,
                            "color-red" : 0.0,
                            "enabled" : 1,
                            "offset" : 10.0,
                            "opacity" : 0.4
                          }
                        }
                    ],
                    "start" : 348,
                    "duration" : 16,
                    "mediaStart" : 0,
                    "mediaDuration" : 16,
                    "scalar" : 1,
                    "metadata" : {
                      "clipSpeedAttribute" : false,
                      "default-callout-fill-color" : "(255,255,255,255)",
                      "default-callout-fill-color-opacity" : "1",
                      "default-scale" : "1",
                      "effectApplied" : "none"
                    },
                    "animationTracks" : {

                    }
                  },
                  {
                    "id" : 24,
                    "_type" : "Callout",
                    "def" : {
                      "kind" : "remix",
                      "shape" : "shape-rectangle",
                      "style" : "basic",
                      "fill-color-blue" : 0.0,
                      "fill-color-green" : 0.984313725490196,
                      "fill-color-opacity" : 0.335831224918365,
                      "fill-color-red" : 1.0,
                      "height" : 115.734703063965,
                      "stroke-color-blue" : 1.0,
                      "stroke-color-green" : 1.0,
                      "stroke-color-opacity" : 1.0,
                      "stroke-color-red" : 1.0,
                      "stroke-width" : 0.0,
                      "width" : 133.233550118112,
                      "fill-style" : "solid",
                      "horizontal-alignment" : "center",
                      "stroke-style" : "solid",
                      "vertical-alignment" : "center",
                      "textAttributes" : {
                        "type" : "textAttributeList",
                        "keyframes" : [
                          {
                            "time" : 0,
                            "value" : null,
                            "duration" : 0
                          }
                        ]
                      }
                    },
                    "attributes" : {
                      "autoRotateText" : true
                    },
                    "parameters" : {
                      "translation0" : 300.354196055182,
                      "translation1" : 0.125866050808256
                    },
                    "effects" : [
                        {
                          "effectName" : "DropShadow",
                          "category" : "categoryVisualEffects",
                          "parameters" : {
                            "angle" : -0.785398163397448,
                            "blur" : 10.0,
                            "color-alpha" : 1.0,
                            "color-blue" : 0.0,
                            "color-green" : 0.0,
                            "color-red" : 0.0,
                            "enabled" : 1,
                            "offset" : 10.0,
                            "opacity" : 0.4
                          }
                        }
                    ],
                    "start" : 364,
                    "duration" : 16,
                    "mediaStart" : 0,
                    "mediaDuration" : 16,
                    "scalar" : 1,
                    "metadata" : {
                      "clipSpeedAttribute" : false,
                      "default-callout-fill-color" : "(255,255,255,255)",
                      "default-callout-fill-color-opacity" : "1",
                      "default-scale" : "1",
                      "effectApplied" : "none"
                    },
                    "animationTracks" : {

                    }
                  },
                  {
                    "id" : 25,
                    "_type" : "Callout",
                    "def" : {
                      "kind" : "remix",
                      "shape" : "shape-rectangle",
                      "style" : "basic",
                      "fill-color-blue" : 0.0,
                      "fill-color-green" : 0.984313725490196,
                      "fill-color-opacity" : 0.335831224918365,
                      "fill-color-red" : 1.0,
                      "height" : 115.734703063965,
                      "stroke-color-blue" : 1.0,
                      "stroke-color-green" : 1.0,
                      "stroke-color-opacity" : 1.0,
                      "stroke-color-red" : 1.0,
                      "stroke-width" : 0.0,
                      "width" : 189.063264243319,
                      "fill-style" : "solid",
                      "horizontal-alignment" : "center",
                      "stroke-style" : "solid",
                      "vertical-alignment" : "center",
                      "textAttributes" : {
                        "type" : "textAttributeList",
                        "keyframes" : [
                          {
                            "time" : 0,
                            "value" : null,
                            "duration" : 0
                          }
                        ]
                      }
                    },
                    "attributes" : {
                      "autoRotateText" : true
                    },
                    "parameters" : {
                      "translation0" : 468.269053117786,
                      "translation1" : 0.125866050808256
                    },
                    "effects" : [
                        {
                          "effectName" : "DropShadow",
                          "category" : "categoryVisualEffects",
                          "parameters" : {
                            "angle" : -0.785398163397448,
                            "blur" : 10.0,
                            "color-alpha" : 1.0,
                            "color-blue" : 0.0,
                            "color-green" : 0.0,
                            "color-red" : 0.0,
                            "enabled" : 1,
                            "offset" : 10.0,
                            "opacity" : 0.4
                          }
                        }
                    ],
                    "start" : 396,
                    "duration" : 16,
                    "mediaStart" : 0,
                    "mediaDuration" : 16,
                    "scalar" : 1,
                    "metadata" : {
                      "clipSpeedAttribute" : false,
                      "default-callout-fill-color" : "(255,255,255,255)",
                      "default-callout-fill-color-opacity" : "1",
                      "default-scale" : "1",
                      "effectApplied" : "none"
                    },
                    "animationTracks" : {

                    }
                  },
                  {
                    "id" : 26,
                    "_type" : "Callout",
                    "def" : {
                      "kind" : "remix",
                      "shape" : "shape-rectangle",
                      "style" : "basic",
                      "fill-color-blue" : 0.0,
                      "fill-color-green" : 0.984313725490196,
                      "fill-color-opacity" : 0.335831224918365,
                      "fill-color-red" : 1.0,
                      "height" : 115.734703063965,
                      "stroke-color-blue" : 1.0,
                      "stroke-color-green" : 1.0,
                      "stroke-color-opacity" : 1.0,
                      "stroke-color-red" : 1.0,
                      "stroke-width" : 0.0,
                      "width" : 35.7372794280175,
                      "fill-style" : "solid",
                      "horizontal-alignment" : "center",
                      "stroke-style" : "solid",
                      "vertical-alignment" : "center",
                      "textAttributes" : {
                        "type" : "textAttributeList",
                        "keyframes" : [
                          {
                            "time" : 0,
                            "value" : null,
                            "duration" : 0
                          }
                        ]
                      }
                    },
                    "attributes" : {
                      "autoRotateText" : true
                    },
                    "parameters" : {
                      "translation0" : 391.606061965552,
                      "translation1" : 0.125866050808256
                    },
                    "effects" : [
                        {
                          "effectName" : "DropShadow",
                          "category" : "categoryVisualEffects",
                          "parameters" : {
                            "angle" : -0.785398163397448,
                            "blur" : 10.0,
                            "color-alpha" : 1.0,
                            "color-blue" : 0.0,
                            "color-green" : 0.0,
                            "color-red" : 0.0,
                            "enabled" : 1,
                            "offset" : 10.0,
                            "opacity" : 0.4
                          }
                        }
                    ],
                    "start" : 412,
                    "duration" : 16,
                    "mediaStart" : 0,
                    "mediaDuration" : 16,
                    "scalar" : 1,
                    "metadata" : {
                      "clipSpeedAttribute" : false,
                      "default-callout-fill-color" : "(255,255,255,255)",
                      "default-callout-fill-color-opacity" : "1",
                      "default-scale" : "1",
                      "effectApplied" : "none"
                    },
                    "animationTracks" : {

                    }
                  },
                  {
                    "id" : 27,
                    "_type" : "Callout",
                    "def" : {
                      "kind" : "remix",
                      "shape" : "shape-rectangle",
                      "style" : "basic",
                      "fill-color-blue" : 0.0,
                      "fill-color-green" : 0.984313725490196,
                      "fill-color-opacity" : 0.335831224918365,
                      "fill-color-red" : 1.0,
                      "height" : 115.734703063965,
                      "stroke-color-blue" : 1.0,
                      "stroke-color-green" : 1.0,
                      "stroke-color-opacity" : 1.0,
                      "stroke-color-red" : 1.0,
                      "stroke-width" : 0.0,
                      "width" : 148.798394526944,
                      "fill-style" : "solid",
                      "horizontal-alignment" : "center",
                      "stroke-style" : "solid",
                      "vertical-alignment" : "center",
                      "textAttributes" : {
                        "type" : "textAttributeList",
                        "keyframes" : [
                          {
                            "time" : 0,
                            "value" : null,
                            "duration" : 0
                          }
                        ]
                      }
                    },
                    "attributes" : {
                      "autoRotateText" : true
                    },
                    "parameters" : {
                      "translation0" : 489.136619515016,
                      "translation1" : 0.125866050808256
                    },
                    "effects" : [
                        {
                          "effectName" : "DropShadow",
                          "category" : "categoryVisualEffects",
                          "parameters" : {
                            "angle" : -0.785398163397448,
                            "blur" : 10.0,
                            "color-alpha" : 1.0,
                            "color-blue" : 0.0,
                            "color-green" : 0.0,
                            "color-red" : 0.0,
                            "enabled" : 1,
                            "offset" : 10.0,
                            "opacity" : 0.4
                          }
                        }
                    ],
                    "start" : 444,
                    "duration" : 16,
                    "mediaStart" : 0,
                    "mediaDuration" : 16,
                    "scalar" : 1,
                    "metadata" : {
                      "clipSpeedAttribute" : false,
                      "default-callout-fill-color" : "(255,255,255,255)",
                      "default-callout-fill-color-opacity" : "1",
                      "default-scale" : "1",
                      "effectApplied" : "none"
                    },
                    "animationTracks" : {

                    }
                  }
                ]
              },
              {
                "trackIndex" : 2,
                "medias" : [
                  {
                    "id" : 28,
                    "_type" : "Callout",
                    "def" : {
                      "kind" : "remix",
                      "shape" : "shape-rectangle",
                      "style" : "basic",
                      "fill-color-blue" : 0.0,
                      "fill-color-green" : 0.976470588235294,
                      "fill-color-opacity" : 0.335831224918365,
                      "fill-color-red" : 0.0,
                      "height" : 115.734703063965,
                      "stroke-color-blue" : 1.0,
                      "stroke-color-green" : 1.0,
                      "stroke-color-opacity" : 1.0,
                      "stroke-color-red" : 1.0,
                      "stroke-width" : 0.0,
                      "width" : 309.182331464031,
                      "fill-style" : "solid",
                      "horizontal-alignment" : "center",
                      "stroke-style" : "solid",
                      "vertical-alignment" : "center",
                      "textAttributes" : {
                        "type" : "textAttributeList",
                        "keyframes" : [
                          {
                            "time" : 0,
                            "value" : null,
                            "duration" : 0
                          }
                        ]
                      }
                    },
                    "attributes" : {
                      "autoRotateText" : true
                    },
                    "parameters" : {
                      "translation0" : 72.8750721709,
                      "translation1" : -0.874133949191744
                    },
                    "effects" : [
                        {
                          "effectName" : "DropShadow",
                          "category" : "categoryVisualEffects",
                          "parameters" : {
                            "angle" : -0.785398163397448,
                            "blur" : 10.0,
                            "color-alpha" : 1.0,
                            "color-blue" : 0.0,
                            "color-green" : 0.0,
                            "color-red" : 0.0,
                            "enabled" : 1,
                            "offset" : 10.0,
                            "opacity" : 0.4
                          }
                        }
                    ],
                    "start" : 316,
                    "duration" : 267,
                    "mediaStart" : 0,
                    "mediaDuration" : 267,
                    "scalar" : 1,
                    "metadata" : {
                      "clipSpeedAttribute" : false,
                      "default-callout-fill-color" : "(255,255,255,255)",
                      "default-callout-fill-color-opacity" : "1",
                      "default-scale" : "1",
                      "effectApplied" : "none"
                    },
                    "animationTracks" : {

                    }
                  }
                ]
              },
              {
                "trackIndex" : 3,
                "medias" : [
                  {
                    "id" : 29,
                    "_type" : "Callout",
                    "def" : {
                      "kind" : "remix",
                      "shape" : "shape-rectangle",
                      "style" : "basic",
                      "fill-color-blue" : 0.0,
                      "fill-color-green" : 0.976470588235294,
                      "fill-color-opacity" : 0.335831224918365,
                      "fill-color-red" : 0.0,
                      "height" : 115.734703063965,
                      "stroke-color-blue" : 1.0,
                      "stroke-color-green" : 1.0,
                      "stroke-color-opacity" : 1.0,
                      "stroke-color-red" : 1.0,
                      "stroke-width" : 0.0,
                      "width" : 134.995707100041,
                      "fill-style" : "solid",
                      "horizontal-alignment" : "center",
                      "stroke-style" : "solid",
                      "vertical-alignment" : "center",
                      "textAttributes" : {
                        "type" : "textAttributeList",
                        "keyframes" : [
                          {
                            "time" : 0,
                            "value" : null,
                            "duration" : 0
                          }
                        ]
                      }
                    },
                    "attributes" : {
                      "autoRotateText" : true
                    },
                    "parameters" : {
                      "translation0" : 301.235277136263,
                      "translation1" : 0.125866050808256
                    },
                    "effects" : [
                        {
                          "effectName" : "DropShadow",
                          "category" : "categoryVisualEffects",
                          "parameters" : {
                            "angle" : -0.785398163397448,
                            "blur" : 10.0,
                            "color-alpha" : 1.0,
                            "color-blue" : 0.0,
                            "color-green" : 0.0,
                            "color-red" : 0.0,
                            "enabled" : 1,
                            "offset" : 10.0,
                            "opacity" : 0.4
                          }
                        }
                    ],
                    "start" : 380,
                    "duration" : 203,
                    "mediaStart" : 0,
                    "mediaDuration" : 203,
                    "scalar" : 1,
                    "metadata" : {
                      "clipSpeedAttribute" : false,
                      "default-callout-fill-color" : "(255,255,255,255)",
                      "default-callout-fill-color-opacity" : "1",
                      "default-scale" : "1",
                      "effectApplied" : "none"
                    },
                    "animationTracks" : {

                    }
                  }
                ]
              },
              {
                "trackIndex" : 4,
                "medias" : [
                  {
                    "id" : 30,
                    "_type" : "Callout",
                    "def" : {
                      "kind" : "remix",
                      "shape" : "shape-rectangle",
                      "style" : "basic",
                      "fill-color-blue" : 0.0,
                      "fill-color-green" : 0.976470588235294,
                      "fill-color-opacity" : 0.335831224918365,
                      "fill-color-red" : 0.0,
                      "height" : 115.734703063965,
                      "stroke-color-blue" : 1.0,
                      "stroke-color-green" : 1.0,
                      "stroke-color-opacity" : 1.0,
                      "stroke-color-red" : 1.0,
                      "stroke-width" : 0.0,
                      "width" : 35.2420438951063,
                      "fill-style" : "solid",
                      "horizontal-alignment" : "center",
                      "stroke-style" : "solid",
                      "vertical-alignment" : "center",
                      "textAttributes" : {
                        "type" : "textAttributeList",
                        "keyframes" : [
                          {
                            "time" : 0,
                            "value" : null,
                            "duration" : 0
                          }
                        ]
                      }
                    },
                    "attributes" : {
                      "autoRotateText" : true
                    },
                    "parameters" : {
                      "translation0" : 391.358444199097,
                      "translation1" : 0.125866050808256
                    },
                    "effects" : [
                        {
                          "effectName" : "DropShadow",
                          "category" : "categoryVisualEffects",
                          "parameters" : {
                            "angle" : -0.785398163397448,
                            "blur" : 10.0,
                            "color-alpha" : 1.0,
                            "color-blue" : 0.0,
                            "color-green" : 0.0,
                            "color-red" : 0.0,
                            "enabled" : 1,
                            "offset" : 10.0,
                            "opacity" : 0.4
                          }
                        }
                    ],
                    "start" : 428,
                    "duration" : 155,
                    "mediaStart" : 0,
                    "mediaDuration" : 155,
                    "scalar" : 1,
                    "metadata" : {
                      "clipSpeedAttribute" : false,
                      "default-callout-fill-color" : "(255,255,255,255)",
                      "default-callout-fill-color-opacity" : "1",
                      "default-scale" : "1",
                      "effectApplied" : "none"
                    },
                    "animationTracks" : {

                    }
                  }
                ]
              },
              {
                "trackIndex" : 5,
                "medias" : [
                  {
                    "id" : 31,
                    "_type" : "Callout",
                    "def" : {
                      "kind" : "remix",
                      "shape" : "shape-rectangle",
                      "style" : "basic",
                      "fill-color-blue" : 0.0,
                      "fill-color-green" : 0.976470588235294,
                      "fill-color-opacity" : 0.335831224918365,
                      "fill-color-red" : 0.0,
                      "height" : 115.734703063965,
                      "stroke-color-blue" : 1.0,
                      "stroke-color-green" : 1.0,
                      "stroke-color-opacity" : 1.0,
                      "stroke-color-red" : 1.0,
                      "stroke-width" : 0.0,
                      "width" : 148.798394526944,
                      "fill-style" : "solid",
                      "horizontal-alignment" : "center",
                      "stroke-style" : "solid",
                      "vertical-alignment" : "center",
                      "textAttributes" : {
                        "type" : "textAttributeList",
                        "keyframes" : [
                          {
                            "time" : 0,
                            "value" : null,
                            "duration" : 0
                          }
                        ]
                      }
                    },
                    "attributes" : {
                      "autoRotateText" : true
                    },
                    "parameters" : {
                      "translation0" : 489.136619515016,
                      "translation1" : 0.125866050808256
                    },
                    "effects" : [
                        {
                          "effectName" : "DropShadow",
                          "category" : "categoryVisualEffects",
                          "parameters" : {
                            "angle" : -0.785398163397448,
                            "blur" : 10.0,
                            "color-alpha" : 1.0,
                            "color-blue" : 0.0,
                            "color-green" : 0.0,
                            "color-red" : 0.0,
                            "enabled" : 1,
                            "offset" : 10.0,
                            "opacity" : 0.4
                          }
                        }
                    ],
                    "start" : 460,
                    "duration" : 123,
                    "mediaStart" : 0,
                    "mediaDuration" : 123,
                    "scalar" : 1,
                    "metadata" : {
                      "clipSpeedAttribute" : false,
                      "default-callout-fill-color" : "(255,255,255,255)",
                      "default-callout-fill-color-opacity" : "1",
                      "default-scale" : "1",
                      "effectApplied" : "none"
                    },
                    "animationTracks" : {

                    }
                  }
                ]
              },
              {
                "trackIndex" : 6,
                "medias" : [
                  {
                    "id" : 32,
                    "_type" : "Callout",
                    "def" : {
                      "kind" : "MacSVG",
                      "shape" : "",
                      "style" : "",
                      "DrawTime" : 1.0,
                      "DrawTimeMac" : 1.0,
                      "height" : 158.653,
                      "stroke-color-blue" : 0.0,
                      "stroke-color-green" : 1.0,
                      "stroke-color-red" : 1.0,
                      "stroke-width" : 3.0,
                      "width" : 462.438579741768,
                      "horizontal-alignment" : "center",
                      "vertical-alignment" : "center",
                      "xmlContent" : "<?xml version=\"1.0\" encoding=\"utf-8\"?>\r<!-- Generator: Adobe Illustrator 15.0.2, SVG Export Plug-In . SVG Version: 6.00 Build 0)  -->\r<!DOCTYPE svg PUBLIC \"-//W3C//DTD SVG 1.1//EN\" \"http://www.w3.org/Graphics/SVG/1.1/DTD/svg11.dtd\">\r<svg version=\"1.1\" id=\"Layer_1\" xmlns=\"http://www.w3.org/2000/svg\" xmlns:xlink=\"http://www.w3.org/1999/xlink\" x=\"0px\" y=\"0px\"\r\t width=\"493.211px\" height=\"420px\" viewBox=\"0 0 493.211 420\" enable-background=\"new 0 0 493.211 420\" xml:space=\"preserve\">\r<path fill=\"none\" stroke=\"#000000\" stroke-miterlimit=\"10\" d=\"M15.386,209.423c0,0,302.233-31.333,420.78-10.62\"/>\r<path fill=\"none\" stroke=\"#000000\" stroke-miterlimit=\"10\" d=\"M300.132,130.673c0,0,164.923,30.692,177.062,66.399\r\tc12.143,35.708-155.115,92.254-155.115,92.254\"/>\r</svg>\r",
                      "textAttributes" : {
                        "type" : "textAttributeList",
                        "keyframes" : [
                          {
                            "time" : 0,
                            "value" : null,
                            "duration" : 0
                          }
                        ]
                      }
                    },
                    "attributes" : {
                      "autoRotateText" : true
                    },
                    "parameters" : {
                      "translation0" : -100.842900698395,
                      "translation1" : -151.162100852675,
                      "rotation2" : 0.600074267607965,
                      "scale0" : 0.747694680533734,
                      "scale1" : 0.428686888920158
                    },
                    "leftEdgeMods" : [
                      {
                        "group" : "Visual",
                        "duration" : 30,
                        "parameters" : [
                          {
                            "name" : "DrawTime",
                              "func" : "FadeInFunc"
                            }
                        ]
                      }
                    ],
                    "rightEdgeMods" : [
                      {
                        "group" : "Visual",
                        "duration" : 30,
                        "parameters" : [
                          {
                            "name" : "opacity",
                              "func" : "FadeOutFunc"
                            }
                        ]
                      }
                    ],
                    "effects" : [
                        {
                          "effectName" : "DropShadow",
                          "category" : "categoryVisualEffects",
                          "parameters" : {
                            "angle" : 5.49778714378214,
                            "blur" : 10.0,
                            "color-alpha" : 1.0,
                            "color-blue" : 0.1216,
                            "color-green" : 0.1216,
                            "color-red" : 0.1216,
                            "enabled" : 1,
                            "offset" : 10.0,
                            "opacity" : 0.4
                          }
                        }
                    ],
                    "start" : 476,
                    "duration" : 107,
                    "mediaStart" : 0,
                    "mediaDuration" : 107,
                    "scalar" : 1,
                    "metadata" : {
                      "clipSpeedAttribute" : false,
                      "default-scale" : "1",
                      "effectApplied" : "none"
                    },
                    "animationTracks" : {

                    }
                  }
                ]
              },
              {
                "trackIndex" : 7,
                "medias" : [
                  {
                    "id" : 33,
                    "_type" : "Callout",
                    "def" : {
                      "kind" : "MacSVG",
                      "shape" : "",
                      "style" : "",
                      "DrawTime" : 1.0,
                      "DrawTimeMac" : 1.0,
                      "height" : 149.563938932405,
                      "stroke-color-blue" : 0.0,
                      "stroke-color-green" : 1.0,
                      "stroke-color-red" : 1.0,
                      "stroke-width" : 3.0,
                      "width" : 396.609390174417,
                      "horizontal-alignment" : "center",
                      "vertical-alignment" : "center",
                      "xmlContent" : "<?xml version=\"1.0\" encoding=\"utf-8\"?>\r<!-- Generator: Adobe Illustrator 15.0.2, SVG Export Plug-In . SVG Version: 6.00 Build 0)  -->\r<!DOCTYPE svg PUBLIC \"-//W3C//DTD SVG 1.1//EN\" \"http://www.w3.org/Graphics/SVG/1.1/DTD/svg11.dtd\">\r<svg version=\"1.1\"\r\t id=\"svg5220\" xmlns:inkscape=\"http://www.inkscape.org/namespaces/inkscape\" xmlns:rdf=\"http://www.w3.org/1999/02/22-rdf-syntax-ns#\" xmlns:sodipodi=\"http://sodipodi.sourceforge.net/DTD/sodipodi-0.dtd\" xmlns:dc=\"http://purl.org/dc/elements/1.1/\" inkscape:version=\"0.47 r22583\" sodipodi:docname=\"CurvedArrow3.svg\" xmlns:cc=\"http://creativecommons.org/ns#\" xmlns:svg=\"http://www.w3.org/2000/svg\"\r\t xmlns=\"http://www.w3.org/2000/svg\" xmlns:xlink=\"http://www.w3.org/1999/xlink\" x=\"0px\" y=\"0px\" width=\"420px\" height=\"420px\"\r\t viewBox=\"0 0 420 420\" enable-background=\"new 0 0 420 420\" xml:space=\"preserve\">\r<path id=\"path5308\" sodipodi:nodetypes=\"cc\" fill=\"none\" stroke=\"#000000\" stroke-width=\"0.4704\" d=\"M11.696,230.822\r\tc125.427-109.741,262.229-106.074,370.696,24.742\"/>\r<path id=\"path5312\" fill=\"none\" stroke=\"#000000\" stroke-width=\"0.48\" d=\"M342.307,135.219\r\tc135.924,156.247,37.634,157.096-76.947,144.944\"/>\r</svg>\r",
                      "textAttributes" : {
                        "type" : "textAttributeList",
                        "keyframes" : [
                          {
                            "time" : 0,
                            "value" : null,
                            "duration" : 0
                          }
                        ]
                      }
                    },
                    "attributes" : {
                      "autoRotateText" : true
                    },
                    "parameters" : {
                      "translation0" : 277.331241858907,
                      "translation1" : 134.602201611163,
                      "rotation2" : -1.17170613942231,
                      "scale0" : 0.520321944191443,
                      "scale1" : 0.381593701401469
                    },
                    "leftEdgeMods" : [
                      {
                        "group" : "Visual",
                        "duration" : 30,
                        "parameters" : [
                          {
                            "name" : "DrawTime",
                              "func" : "FadeInFunc"
                            }
                        ]
                      }
                    ],
                    "rightEdgeMods" : [
                      {
                        "group" : "Visual",
                        "duration" : 30,
                        "parameters" : [
                          {
                            "name" : "opacity",
                              "func" : "FadeOutFunc"
                            }
                        ]
                      }
                    ],
                    "effects" : [
                        {
                          "effectName" : "DropShadow",
                          "category" : "categoryVisualEffects",
                          "parameters" : {
                            "angle" : 5.49778714378214,
                            "blur" : 10.0,
                            "color-alpha" : 1.0,
                            "color-blue" : 0.1216,
                            "color-green" : 0.1216,
                            "color-red" : 0.1216,
                            "enabled" : 1,
                            "offset" : 10.0,
                            "opacity" : 0.4
                          }
                        }
                    ],
                    "start" : 476,
                    "duration" : 107,
                    "mediaStart" : 0,
                    "mediaDuration" : 107,
                    "scalar" : 1,
                    "metadata" : {
                      "clipSpeedAttribute" : false,
                      "default-scale" : "1",
                      "effectApplied" : "none"
                    },
                    "animationTracks" : {

                    }
                  }
                ]
              },
              {
                "trackIndex" : 8,
                "medias" : [
                  {
                    "id" : 34,
                    "_type" : "Callout",
                    "def" : {
                      "kind" : "MacSVG",
                      "shape" : "",
                      "style" : "",
                      "DrawTime" : 1.0,
                      "DrawTimeMac" : 1.0,
                      "height" : 149.563938932405,
                      "stroke-color-blue" : 0.0,
                      "stroke-color-green" : 1.0,
                      "stroke-color-red" : 1.0,
                      "stroke-width" : 3.0,
                      "width" : 396.609390174417,
                      "horizontal-alignment" : "center",
                      "vertical-alignment" : "center",
                      "xmlContent" : "<?xml version=\"1.0\" encoding=\"utf-8\"?>\r<!-- Generator: Adobe Illustrator 15.0.2, SVG Export Plug-In . SVG Version: 6.00 Build 0)  -->\r<!DOCTYPE svg PUBLIC \"-//W3C//DTD SVG 1.1//EN\" \"http://www.w3.org/Graphics/SVG/1.1/DTD/svg11.dtd\">\r<svg version=\"1.1\"\r\t id=\"svg5220\" xmlns:inkscape=\"http://www.inkscape.org/namespaces/inkscape\" xmlns:rdf=\"http://www.w3.org/1999/02/22-rdf-syntax-ns#\" xmlns:sodipodi=\"http://sodipodi.sourceforge.net/DTD/sodipodi-0.dtd\" xmlns:dc=\"http://purl.org/dc/elements/1.1/\" inkscape:version=\"0.47 r22583\" sodipodi:docname=\"CurvedArrow3.svg\" xmlns:cc=\"http://creativecommons.org/ns#\" xmlns:svg=\"http://www.w3.org/2000/svg\"\r\t xmlns=\"http://www.w3.org/2000/svg\" xmlns:xlink=\"http://www.w3.org/1999/xlink\" x=\"0px\" y=\"0px\" width=\"420px\" height=\"420px\"\r\t viewBox=\"0 0 420 420\" enable-background=\"new 0 0 420 420\" xml:space=\"preserve\">\r<path id=\"path5308\" sodipodi:nodetypes=\"cc\" fill=\"none\" stroke=\"#000000\" stroke-width=\"0.4704\" d=\"M11.696,230.822\r\tc125.427-109.741,262.229-106.074,370.696,24.742\"/>\r<path id=\"path5312\" fill=\"none\" stroke=\"#000000\" stroke-width=\"0.48\" d=\"M342.307,135.219\r\tc135.924,156.247,37.634,157.096-76.947,144.944\"/>\r</svg>\r",
                      "textAttributes" : {
                        "type" : "textAttributeList",
                        "keyframes" : [
                          {
                            "time" : 0,
                            "value" : null,
                            "duration" : 0
                          }
                        ]
                      }
                    },
                    "attributes" : {
                      "autoRotateText" : true
                    },
                    "parameters" : {
                      "translation0" : 410.29187922918,
                      "translation1" : 141.892431589428,
                      "rotation2" : -0.785398163397468,
                      "scale0" : 0.689009787312619,
                      "scale1" : 0.364335124439049
                    },
                    "leftEdgeMods" : [
                      {
                        "group" : "Visual",
                        "duration" : 30,
                        "parameters" : [
                          {
                            "name" : "DrawTime",
                              "func" : "FadeInFunc"
                            }
                        ]
                      }
                    ],
                    "rightEdgeMods" : [
                      {
                        "group" : "Visual",
                        "duration" : 30,
                        "parameters" : [
                          {
                            "name" : "opacity",
                              "func" : "FadeOutFunc"
                            }
                        ]
                      }
                    ],
                    "effects" : [
                        {
                          "effectName" : "DropShadow",
                          "category" : "categoryVisualEffects",
                          "parameters" : {
                            "angle" : 5.49778714378214,
                            "blur" : 10.0,
                            "color-alpha" : 1.0,
                            "color-blue" : 0.1216,
                            "color-green" : 0.1216,
                            "color-red" : 0.1216,
                            "enabled" : 1,
                            "offset" : 10.0,
                            "opacity" : 0.4
                          }
                        }
                    ],
                    "start" : 476,
                    "duration" : 107,
                    "mediaStart" : 0,
                    "mediaDuration" : 107,
                    "scalar" : 1,
                    "metadata" : {
                      "clipSpeedAttribute" : false,
                      "default-scale" : "1",
                      "effectApplied" : "none"
                    },
                    "animationTracks" : {

                    }
                  }
                ]
              },
              {
                "trackIndex" : 9,
                "medias" : [
                  {
                    "id" : 35,
                    "_type" : "Callout",
                    "def" : {
                      "kind" : "MacSVG",
                      "shape" : "",
                      "style" : "",
                      "DrawTime" : 1.0,
                      "DrawTimeMac" : 1.0,
                      "height" : 149.563938932405,
                      "stroke-color-blue" : 0.0,
                      "stroke-color-green" : 1.0,
                      "stroke-color-red" : 1.0,
                      "stroke-width" : 3.0,
                      "width" : 396.609390174417,
                      "horizontal-alignment" : "center",
                      "vertical-alignment" : "center",
                      "xmlContent" : "<?xml version=\"1.0\" encoding=\"utf-8\"?>\r<!-- Generator: Adobe Illustrator 15.0.2, SVG Export Plug-In . SVG Version: 6.00 Build 0)  -->\r<!DOCTYPE svg PUBLIC \"-//W3C//DTD SVG 1.1//EN\" \"http://www.w3.org/Graphics/SVG/1.1/DTD/svg11.dtd\">\r<svg version=\"1.1\"\r\t id=\"svg5220\" xmlns:inkscape=\"http://www.inkscape.org/namespaces/inkscape\" xmlns:rdf=\"http://www.w3.org/1999/02/22-rdf-syntax-ns#\" xmlns:sodipodi=\"http://sodipodi.sourceforge.net/DTD/sodipodi-0.dtd\" xmlns:dc=\"http://purl.org/dc/elements/1.1/\" inkscape:version=\"0.47 r22583\" sodipodi:docname=\"CurvedArrow3.svg\" xmlns:cc=\"http://creativecommons.org/ns#\" xmlns:svg=\"http://www.w3.org/2000/svg\"\r\t xmlns=\"http://www.w3.org/2000/svg\" xmlns:xlink=\"http://www.w3.org/1999/xlink\" x=\"0px\" y=\"0px\" width=\"420px\" height=\"420px\"\r\t viewBox=\"0 0 420 420\" enable-background=\"new 0 0 420 420\" xml:space=\"preserve\">\r<path id=\"path5308\" sodipodi:nodetypes=\"cc\" fill=\"none\" stroke=\"#000000\" stroke-width=\"0.4704\" d=\"M11.696,230.822\r\tc125.427-109.741,262.229-106.074,370.696,24.742\"/>\r<path id=\"path5312\" fill=\"none\" stroke=\"#000000\" stroke-width=\"0.48\" d=\"M342.307,135.219\r\tc135.924,156.247,37.634,157.096-76.947,144.944\"/>\r</svg>\r",
                      "textAttributes" : {
                        "type" : "textAttributeList",
                        "keyframes" : [
                          {
                            "time" : 0,
                            "value" : null,
                            "duration" : 0
                          }
                        ]
                      }
                    },
                    "attributes" : {
                      "autoRotateText" : true
                    },
                    "parameters" : {
                      "translation0" : 422.129747764417,
                      "translation1" : -140.241513063156,
                      "rotation2" : 2.06176701952268,
                      "scale0" : 0.521863508762544,
                      "scale1" : 0.285679745119947
                    },
                    "leftEdgeMods" : [
                      {
                        "group" : "Visual",
                        "duration" : 30,
                        "parameters" : [
                          {
                            "name" : "DrawTime",
                              "func" : "FadeInFunc"
                            }
                        ]
                      }
                    ],
                    "rightEdgeMods" : [
                      {
                        "group" : "Visual",
                        "duration" : 30,
                        "parameters" : [
                          {
                            "name" : "opacity",
                              "func" : "FadeOutFunc"
                            }
                        ]
                      }
                    ],
                    "effects" : [
                        {
                          "effectName" : "DropShadow",
                          "category" : "categoryVisualEffects",
                          "parameters" : {
                            "angle" : 5.49778714378214,
                            "blur" : 10.0,
                            "color-alpha" : 1.0,
                            "color-blue" : 0.1216,
                            "color-green" : 0.1216,
                            "color-red" : 0.1216,
                            "enabled" : 1,
                            "offset" : 10.0,
                            "opacity" : 0.4
                          }
                        }
                    ],
                    "start" : 476,
                    "duration" : 107,
                    "mediaStart" : 0,
                    "mediaDuration" : 107,
                    "scalar" : 1,
                    "metadata" : {
                      "clipSpeedAttribute" : false,
                      "default-scale" : "1",
                      "effectApplied" : "none"
                    },
                    "animationTracks" : {

                    }
                  }
                ]
              },
              {
                "trackIndex" : 10,
                "medias" : [
                  {
                    "id" : 36,
                    "_type" : "Callout",
                    "def" : {
                      "kind" : "remix",
                      "shape" : "text",
                      "style" : "basic",
                      "height" : 350.212904157044,
                      "width" : 576.566108545033,
                      "word-wrap" : 1.0,
                      "horizontal-alignment" : "left",
                      "text" : "TokenTypes.DIRECTION_WEEK\n",
                      "vertical-alignment" : "center",
                      "font" : {
                        "color-blue" : 1.0,
                        "color-green" : 1.0,
                        "color-red" : 1.0,
                        "size" : 64.0,
                        "tracking" : 0.0,
                        "name" : "Montserrat",
                        "weight" : "Regular"
                      },
                      "textAttributes" : {
                        "type" : "textAttributeList",
                        "keyframes" : [
                          {
                            "time" : 0,
                            "value" : [{"name":"underline","rangeEnd":26,"rangeStart":0,"value":0,"valueType":"int"},{"name":"fontSize","rangeEnd":26,"rangeStart":0,"value":36,"valueType":"double"},{"name":"fontItalic","rangeEnd":26,"rangeStart":0,"value":0,"valueType":"int"},{"name":"fontName","rangeEnd":26,"rangeStart":0,"value":"Menlo","valueType":"string"},{"name":"strikethrough","rangeEnd":26,"rangeStart":0,"value":0,"valueType":"int"},{"name":"fgColor","rangeEnd":11,"rangeStart":10,"value":"(212,212,212,255)","valueType":"color"},{"name":"fontWeight","rangeEnd":26,"rangeStart":0,"value":400,"valueType":"int"},{"name":"fgColor","rangeEnd":10,"rangeStart":0,"value":"(156,220,254,255)","valueType":"color"},{"name":"fgColor","rangeEnd":25,"rangeStart":11,"value":"(156,220,254,255)","valueType":"color"},{"name":"fgColor","rangeEnd":26,"rangeStart":25,"value":"(212,212,212,255)","valueType":"color"}],
                            "duration" : 0
                          }
                        ]
                      }
                    },
                    "attributes" : {
                      "autoRotateText" : true
                    },
                    "parameters" : {
                      "translation0" : -267.01659930716,
                      "translation1" : -291.655528290993
                    },
                    "effects" : [
                        {
                          "effectName" : "DropShadow",
                          "category" : "categoryVisualEffects",
                          "parameters" : {
                            "angle" : -0.785398163397448,
                            "blur" : 10.0,
                            "color-alpha" : 1.0,
                            "color-blue" : 0.0,
                            "color-green" : 0.0,
                            "color-red" : 0.0,
                            "enabled" : 1,
                            "offset" : 10.0,
                            "opacity" : 0.4
                          }
                        }
                    ],
                    "start" : 476,
                    "duration" : 107,
                    "mediaStart" : 0,
                    "mediaDuration" : 107,
                    "scalar" : 1,
                    "metadata" : {
                      "clipSpeedAttribute" : false,
                      "default-scale" : "1",
                      "default-text" : "{\\rtf1\\ansi\\ansicpg1252\\cocoartf1561\\cocoasubrtf400\n{\\fonttbl\\f0\\fnil\\fcharset0 Menlo-Regular;}\n{\\colortbl;\\red255\\green255\\blue255;\\red140\\green211\\blue254;\\red202\\green202\\blue202;}\n{\\*\\expandedcolortbl;;\\cssrgb\\c61176\\c86275\\c99608;\\cssrgb\\c83137\\c83137\\c83137;}\n\\pard\\tx560\\tx1120\\tx1680\\tx2240\\tx2800\\tx3360\\tx3920\\tx4480\\tx5040\\tx5600\\tx6160\\tx6720\\pardirnatural\\partightenfactor0\n\n\\f0\\fs24 \\cf2 \\ulnone TokenTypes\\cf3 .\\cf2 DIRECTION_WEEK\\cf3 \\\n}",
                      "effectApplied" : "none"
                    },
                    "animationTracks" : {

                    }
                  }
                ]
              },
              {
                "trackIndex" : 11,
                "medias" : [
                  {
                    "id" : 37,
                    "_type" : "Callout",
                    "def" : {
                      "kind" : "remix",
                      "shape" : "text",
                      "style" : "basic",
                      "height" : 202.152718334298,
                      "width" : 638.0,
                      "word-wrap" : 1.0,
                      "horizontal-alignment" : "left",
                      "text" : "TokenTypes.DAY_OF_WEEK\n\n",
                      "vertical-alignment" : "center",
                      "font" : {
                        "color-blue" : 1.0,
                        "color-green" : 1.0,
                        "color-red" : 1.0,
                        "size" : 64.0,
                        "tracking" : 0.0,
                        "name" : "Montserrat",
                        "weight" : "Regular"
                      },
                      "textAttributes" : {
                        "type" : "textAttributeList",
                        "keyframes" : [
                          {
                            "time" : 0,
                            "value" : [{"name":"fgColor","rangeEnd":22,"rangeStart":11,"value":"(156,220,254,255)","valueType":"color"},{"name":"fgColor","rangeEnd":11,"rangeStart":10,"value":"(212,212,212,255)","valueType":"color"},{"name":"fontItalic","rangeEnd":24,"rangeStart":0,"value":0,"valueType":"int"},{"name":"strikethrough","rangeEnd":24,"rangeStart":0,"value":0,"valueType":"int"},{"name":"underline","rangeEnd":24,"rangeStart":0,"value":0,"valueType":"int"},{"name":"fgColor","rangeEnd":10,"rangeStart":0,"value":"(156,220,254,255)","valueType":"color"},{"name":"fgColor","rangeEnd":24,"rangeStart":22,"value":"(212,212,212,255)","valueType":"color"},{"name":"fontName","rangeEnd":24,"rangeStart":0,"value":"Menlo","valueType":"string"},{"name":"fontSize","rangeEnd":24,"rangeStart":0,"value":36,"valueType":"double"},{"name":"fontWeight","rangeEnd":24,"rangeStart":0,"value":400,"valueType":"int"}],
                            "duration" : 0
                          }
                        ]
                      }
                    },
                    "attributes" : {
                      "autoRotateText" : true
                    },
                    "parameters" : {
                      "translation0" : 300.98340069284,
                      "translation1" : 226.032391729231
                    },
                    "effects" : [
                        {
                          "effectName" : "DropShadow",
                          "category" : "categoryVisualEffects",
                          "parameters" : {
                            "angle" : -0.785398163397448,
                            "blur" : 10.0,
                            "color-alpha" : 1.0,
                            "color-blue" : 0.0,
                            "color-green" : 0.0,
                            "color-red" : 0.0,
                            "enabled" : 1,
                            "offset" : 10.0,
                            "opacity" : 0.4
                          }
                        }
                    ],
                    "start" : 476,
                    "duration" : 107,
                    "mediaStart" : 0,
                    "mediaDuration" : 107,
                    "scalar" : 1,
                    "metadata" : {
                      "clipSpeedAttribute" : false,
                      "default-scale" : "1",
                      "default-text" : "{\\rtf1\\ansi\\ansicpg1252\\cocoartf1561\\cocoasubrtf400\n{\\fonttbl\\f0\\fnil\\fcharset0 Menlo-Regular;}\n{\\colortbl;\\red255\\green255\\blue255;\\red140\\green211\\blue254;\\red202\\green202\\blue202;}\n{\\*\\expandedcolortbl;;\\cssrgb\\c61176\\c86275\\c99608;\\cssrgb\\c83137\\c83137\\c83137;}\n\\pard\\tx560\\tx1120\\tx1680\\tx2240\\tx2800\\tx3360\\tx3920\\tx4480\\tx5040\\tx5600\\tx6160\\tx6720\\pardirnatural\\partightenfactor0\n\n\\f0\\fs24 \\cf2 \\ulnone TokenTypes\\cf3 .\\cf2 DIRECTION_WEEK\\cf3 \\\n}",
                      "effectApplied" : "none"
                    },
                    "animationTracks" : {

                    }
                  }
                ]
              },
              {
                "trackIndex" : 12,
                "medias" : [
                  {
                    "id" : 38,
                    "_type" : "Callout",
                    "def" : {
                      "kind" : "remix",
                      "shape" : "text",
                      "style" : "basic",
                      "height" : 350.212904157044,
                      "width" : 376.511876336258,
                      "word-wrap" : 1.0,
                      "horizontal-alignment" : "left",
                      "text" : "TokenTypes.RANGE\n",
                      "vertical-alignment" : "center",
                      "font" : {
                        "color-blue" : 1.0,
                        "color-green" : 1.0,
                        "color-red" : 1.0,
                        "size" : 64.0,
                        "tracking" : 0.0,
                        "name" : "Montserrat",
                        "weight" : "Regular"
                      },
                      "textAttributes" : {
                        "type" : "textAttributeList",
                        "keyframes" : [
                          {
                            "time" : 0,
                            "value" : [{"name":"fgColor","rangeEnd":17,"rangeStart":16,"value":"(212,212,212,255)","valueType":"color"},{"name":"strikethrough","rangeEnd":17,"rangeStart":0,"value":0,"valueType":"int"},{"name":"underline","rangeEnd":17,"rangeStart":0,"value":0,"valueType":"int"},{"name":"fontItalic","rangeEnd":17,"rangeStart":0,"value":0,"valueType":"int"},{"name":"fontSize","rangeEnd":17,"rangeStart":0,"value":36,"valueType":"double"},{"name":"fgColor","rangeEnd":10,"rangeStart":0,"value":"(156,220,254,255)","valueType":"color"},{"name":"fontName","rangeEnd":17,"rangeStart":0,"value":"Menlo","valueType":"string"},{"name":"fontWeight","rangeEnd":17,"rangeStart":0,"value":400,"valueType":"int"},{"name":"fgColor","rangeEnd":11,"rangeStart":10,"value":"(212,212,212,255)","valueType":"color"},{"name":"fgColor","rangeEnd":16,"rangeStart":11,"value":"(156,220,254,255)","valueType":"color"}],
                            "duration" : 0
                          }
                        ]
                      }
                    },
                    "attributes" : {
                      "autoRotateText" : true
                    },
                    "parameters" : {
                      "translation0" : 452.010516797228,
                      "translation1" : -291.655528290993
                    },
                    "effects" : [
                        {
                          "effectName" : "DropShadow",
                          "category" : "categoryVisualEffects",
                          "parameters" : {
                            "angle" : -0.785398163397448,
                            "blur" : 10.0,
                            "color-alpha" : 1.0,
                            "color-blue" : 0.0,
                            "color-green" : 0.0,
                            "color-red" : 0.0,
                            "enabled" : 1,
                            "offset" : 10.0,
                            "opacity" : 0.4
                          }
                        }
                    ],
                    "start" : 476,
                    "duration" : 107,
                    "mediaStart" : 0,
                    "mediaDuration" : 107,
                    "scalar" : 1,
                    "metadata" : {
                      "clipSpeedAttribute" : false,
                      "default-scale" : "1",
                      "default-text" : "{\\rtf1\\ansi\\ansicpg1252\\cocoartf1561\\cocoasubrtf400\n{\\fonttbl\\f0\\fnil\\fcharset0 Menlo-Regular;}\n{\\colortbl;\\red255\\green255\\blue255;\\red140\\green211\\blue254;\\red202\\green202\\blue202;}\n{\\*\\expandedcolortbl;;\\cssrgb\\c61176\\c86275\\c99608;\\cssrgb\\c83137\\c83137\\c83137;}\n\\pard\\tx560\\tx1120\\tx1680\\tx2240\\tx2800\\tx3360\\tx3920\\tx4480\\tx5040\\tx5600\\tx6160\\tx6720\\pardirnatural\\partightenfactor0\n\n\\f0\\fs24 \\cf2 \\ulnone TokenTypes\\cf3 .\\cf2 DIRECTION_WEEK\\cf3 \\\n}",
                      "effectApplied" : "none"
                    },
                    "animationTracks" : {

                    }
                  }
                ]
              }
            ]
          }
        }
      ]
    },
    "trackAttributes" : [
      {
        "ident" : "",
        "audioMuted" : false,
        "videoHidden" : false,
        "metadata" : {
          "IsLocked" : "False",
          "trackHeight" : "48"
        }
      },
      {
        "ident" : "",
        "audioMuted" : false,
        "videoHidden" : false,
        "metadata" : {
          "IsLocked" : "False",
          "trackHeight" : "48"
        }
      },
      {
        "ident" : "",
        "audioMuted" : false,
        "videoHidden" : false,
        "metadata" : {
          "IsLocked" : "False",
          "trackHeight" : "48"
        }
      },
      {
        "ident" : "",
        "audioMuted" : false,
        "videoHidden" : false,
        "metadata" : {
          "IsLocked" : "False",
          "trackHeight" : "48"
        }
      },
      {
        "ident" : "",
        "audioMuted" : false,
        "videoHidden" : false,
        "metadata" : {
          "IsLocked" : "False",
          "trackHeight" : "48"
        }
      },
      {
        "ident" : "",
        "audioMuted" : false,
        "videoHidden" : false,
        "metadata" : {
          "IsLocked" : "False",
          "trackHeight" : "48"
        }
      },
      {
        "ident" : "",
        "audioMuted" : false,
        "videoHidden" : false,
        "metadata" : {
          "IsLocked" : "False",
          "trackHeight" : "48"
        }
      },
      {
        "ident" : "",
        "audioMuted" : false,
        "videoHidden" : false,
        "metadata" : {
          "IsLocked" : "False",
          "trackHeight" : "48"
        }
      },
      {
        "ident" : "",
        "audioMuted" : false,
        "videoHidden" : false,
        "metadata" : {
          "IsLocked" : "False",
          "trackHeight" : "48"
        }
      },
      {
        "ident" : "",
        "audioMuted" : false,
        "videoHidden" : false,
        "metadata" : {
          "IsLocked" : "False",
          "trackHeight" : "48"
        }
      },
      {
        "ident" : "",
        "audioMuted" : false,
        "videoHidden" : false,
        "metadata" : {
          "IsLocked" : "False",
          "trackHeight" : "48"
        }
      },
      {
        "ident" : "",
        "audioMuted" : false,
        "videoHidden" : false,
        "metadata" : {
          "IsLocked" : "False",
          "trackHeight" : "48"
        }
      },
      {
        "ident" : "",
        "audioMuted" : false,
        "videoHidden" : false,
        "metadata" : {
          "IsLocked" : "False",
          "trackHeight" : "48"
        }
      }
    ],
    "captionAttributes" : {
      "enabled" : true,
      "fontName" : "Arial",
      "fontSize" : 32,
      "backgroundColor" : [ 0, 0, 0, 204],
      "foregroundColor" : [ 255, 255, 255, 255],
      "lang" : "en",
      "alignment" : 0,
      "defaultFontSize" : true,
      "opacity" : 0.5,
      "backgroundEnabled" : true,
      "backgroundOnlyAroundText" : true
    },
    "backgroundColor" : [ 0, 0, 0, 255]
  },
  "metadata" : {
    "firstMedia" : true
  }
}
